#!OML:ASF X:\für Bonn\!DataBase\2005_08_10_Bjorn_Final\c3d\bjorn.ASF
:FULLY-SPECIFIED
:DEGREES
211
root 16.1395 17.5841 0.22905 1086.18 -65.3622 -326.04
lowerback 72.6216 -1.54555 11.2738
upperback 17.7625 3.01814 -0.797652
thorax -0.0800481 1.83178 -6.48712
lowerneck 7.16541 -7.34837 12.032
upperneck -20.5352 -8.87359 -1.14022
head -8.17956 -5.24006 -1.46304
rclavicle -3.18055e-015 2.22639e-014
rhumerus 80.9587 -4.42549 -27.2791
rradius 1.11998
rwrist 36.4302
rhand -37.7204 36.7923
rfingers 7.12502
rthumb -10.7696 7.08837
lclavicle -3.18055e-015 2.22639e-014
lhumerus -6.91193 -25.5932 89.2836
lradius 51.4251
lwrist 1.39693
lhand -32.36 -15.2657
lfingers 7.12502
lthumb -5.59636 14.6404
rfemur -76.689 -18.1354 10.9078
rtibia 65.1592
rfoot -19.9821 9.0802
rtoes -7.72398
lfemur -72.5016 -5.04007 -27.2399
ltibia 57.6464
lfoot -14.6693 -8.06053
ltoes -6.32897
212
root 16.1436 17.5851 0.238237 1086.07 -65.3891 -325.956
lowerback 72.6868 -1.61416 11.3276
upperback 17.7454 2.98762 -0.821575
thorax -0.0895282 1.82403 -6.52176
lowerneck 6.94717 -7.34705 12.0801
upperneck -20.4181 -8.89325 -1.13024
head -8.10467 -5.25335 -1.47547
rclavicle 9.54166e-015 0
rhumerus 80.5461 -4.3579 -26.6003
rradius 1.62778
rwrist 35.7597
rhand -37.9419 37.0035
rfingers 7.12502
rthumb -10.9832 7.31081
lclavicle 9.54166e-015 0
lhumerus -6.94576 -25.6906 89.3011
lradius 51.4107
lwrist 1.39792
lhand -32.3316 -15.2975
lfingers 7.12502
lthumb -5.56893 14.6094
rfemur -76.6482 -18.1284 10.8279
rtibia 65.15
rfoot -19.9596 9.06273
rtoes -7.72464
lfemur -72.4679 -5.10633 -27.2602
ltibia 57.6583
lfoot -14.704 -7.95483
ltoes -6.40061
213
root 16.1477 17.586 0.248008 1086 -65.4285 -325.909
lowerback 72.7365 -1.67424 11.3753
upperback 17.72 2.96121 -0.84591
thorax -0.110594 1.81601 -6.55679
lowerneck 6.83668 -7.34139 12.0929
upperneck -20.3572 -8.88835 -1.0842
head -8.06299 -5.25546 -1.46816
rclavicle -6.36111e-014 -2.22639e-014
rhumerus 80.1273 -4.25133 -25.9289
rradius 2.14336
rwrist 35.0553
rhand -38.1498 37.172
rfingers 7.12502
rthumb -11.1838 7.49004
lclavicle -6.36111e-014 -2.22639e-014
lhumerus -6.98257 -25.7505 89.3246
lradius 51.3836
lwrist 1.43221
lhand -32.2706 -15.4098
lfingers 7.12502
lthumb -5.50998 14.4986
rfemur -76.6045 -18.1094 10.757
rtibia 65.1349
rfoot -19.9359 9.06516
rtoes -7.79449
lfemur -72.4405 -5.18576 -27.2356
ltibia 57.6704
lfoot -14.7333 -7.83261
ltoes -6.29814
214
root 16.1521 17.5872 0.257835 1085.99 -65.466 -325.93
lowerback 72.7224 -1.74026 11.4399
upperback 17.7353 2.92423 -0.879047
thorax -0.0891902 1.80902 -6.60578
lowerneck 6.69388 -7.32767 12.1705
upperneck -20.2915 -8.87719 -1.082
head -8.01902 -5.25577 -1.48725
rclavicle 2.8625e-014 -3.18055e-014
rhumerus 79.7382 -4.16199 -25.2841
rradius 2.62235
rwrist 34.3102
rhand -38.361 37.3892
rfingers 7.12502
rthumb -11.3875 7.71842
lclavicle 2.8625e-014 -3.18055e-014
lhumerus -6.99718 -25.8424 89.2878
lradius 51.3539
lwrist 1.44646
lhand -32.205 -15.4667
lfingers 7.12502
lthumb -5.44666 14.4433
rfemur -76.5593 -18.0828 10.7224
rtibia 65.108
rfoot -19.9208 9.0523
rtoes -7.81909
lfemur -72.4134 -5.27172 -27.1767
ltibia 57.6826
lfoot -14.7671 -7.6701
ltoes -6.41211
215
root 16.1572 17.5894 0.268337 1085.97 -65.5158 -325.954
lowerback 72.6897 -1.79716 11.5048
upperback 17.756 2.89321 -0.909567
thorax -0.0628231 1.80426 -6.65462
lowerneck 6.62953 -7.32027 12.2247
upperneck -20.2789 -8.85878 -1.04199
head -8.0037 -5.25487 -1.48699
rclavicle 1.30403e-013 -9.54166e-015
rhumerus 79.2625 -4.08669 -24.6297
rradius 3.22271
rwrist 33.6277
rhand -38.5842 37.4455
rfingers 7.12502
rthumb -11.6027 7.78675
lclavicle 1.30403e-013 -9.54166e-015
lhumerus -7.03797 -25.9341 89.2743
lradius 51.3525
lwrist 1.47397
lhand -32.1414 -15.5305
lfingers 7.12502
lthumb -5.38521 14.3811
rfemur -76.5058 -18.0473 10.6855
rtibia 65.0775
rfoot -19.9025 9.03745
rtoes -7.87662
lfemur -72.3813 -5.34547 -27.1176
ltibia 57.6958
lfoot -14.7992 -7.52755
ltoes -6.36911
216
root 16.1627 17.5914 0.278538 1085.99 -65.5616 -326.012
lowerback 72.6027 -1.83198 11.5398
upperback 17.7952 2.85812 -0.929668
thorax -0.024287 1.79485 -6.68007
lowerneck 6.5035 -7.30434 12.3458
upperneck -20.2084 -8.84355 -1.07372
head -7.96477 -5.25274 -1.5237
rclavicle 4.77083e-014 -3.49861e-014
rhumerus 78.8334 -3.97767 -23.9972
rradius 3.79296
rwrist 32.878
rhand -38.8118 37.5251
rfingers 7.12502
rthumb -11.8222 7.87881
lclavicle 4.77083e-014 -3.49861e-014
lhumerus -7.05918 -26.0652 89.2027
lradius 51.3497
lwrist 1.62217
lhand -32.0791 -15.591
lfingers 7.12502
lthumb -5.32515 14.3221
rfemur -76.4624 -18.0085 10.6641
rtibia 65.0392
rfoot -19.8862 9.00338
rtoes -8.06413
lfemur -72.3647 -5.43577 -27.0289
ltibia 57.7065
lfoot -14.8274 -7.36801
ltoes -6.31746
217
root 16.1687 17.5931 0.290009 1086.03 -65.6252 -326.104
lowerback 72.4465 -1.85362 11.5857
upperback 17.8766 2.82774 -0.943023
thorax 0.0583514 1.79042 -6.70526
lowerneck 6.39137 -7.29224 12.445
upperneck -20.1669 -8.83266 -1.0905
head -7.9365 -5.25355 -1.55054
rclavicle -1.59028e-014 2.54444e-014
rhumerus 78.442 -3.87561 -23.3547
rradius 4.27116
rwrist 32.0549
rhand -39.0057 37.6207
rfingers 7.12502
rthumb -12.0092 7.98527
lclavicle -1.59028e-014 2.54444e-014
lhumerus -7.04902 -26.1182 89.1616
lradius 51.3481
lwrist 1.67149
lhand -31.9734 -15.6572
lfingers 7.12502
lthumb -5.22305 14.2584
rfemur -76.4001 -17.9562 10.6491
rtibia 64.9886
rfoot -19.8554 8.99356
rtoes -8.01223
lfemur -72.3395 -5.49621 -26.9476
ltibia 57.7195
lfoot -14.8747 -7.20733
ltoes -6.44302
218
root 16.1754 17.5966 0.301458 1086.09 -65.6948 -326.207
lowerback 72.268 -1.8458 11.6031
upperback 17.9501 2.81039 -0.935439
thorax 0.127183 1.78478 -6.70124
lowerneck 6.30822 -7.2876 12.5532
upperneck -20.1331 -8.83277 -1.13245
head -7.9183 -5.25802 -1.58455
rclavicle -3.18055e-014 5.725e-014
rhumerus 78.0627 -3.7087 -22.7076
rradius 4.68845
rwrist 31.1469
rhand -39.1997 37.7688
rfingers 7.12502
rthumb -12.1962 8.14441
lclavicle -3.18055e-014 5.725e-014
lhumerus -7.07603 -26.1771 89.1417
lradius 51.3467
lwrist 1.81127
lhand -31.8187 -15.7352
lfingers 7.12502
lthumb -5.07365 14.1841
rfemur -76.3432 -17.8864 10.6361
rtibia 64.9299
rfoot -19.8145 8.95391
rtoes -8.18707
lfemur -72.3183 -5.57149 -26.838
ltibia 57.7265
lfoot -14.9049 -7.03587
ltoes -6.38498
